<?xml version="1.0" standalone="no"?>
<!DOCTYPE svg PUBLIC "-//W3C//DTD SVG 20010904//EN"
 "http://www.w3.org/TR/2001/REC-SVG-20010904/DTD/svg10.dtd">
<svg version="1.0" xmlns="http://www.w3.org/2000/svg"
 width="700.000000pt" height="700.000000pt" viewBox="0 0 700.000000 700.000000"
 preserveAspectRatio="xMidYMid meet">
<metadata>
Created by potrace 1.11, written by Peter Selinger 2001-2013
</metadata>
<g transform="translate(0.000000,700.000000) scale(0.100000,-0.100000)"
fill="#000000" stroke="none">
<path d="M3250 6500 c-614 -59 -1159 -276 -1630 -650 -130 -103 -362 -334
-462 -460 -666 -840 -845 -1924 -483 -2925 212 -584 621 -1107 1143 -1459 561
-379 1256 -562 1917 -506 883 76 1663 510 2188 1217 758 1023 782 2426 59
3483 -209 306 -502 596 -806 799 -396 264 -830 426 -1297 486 -148 19 -496 27
-629 15z m401 -967 c61 -27 116 -84 148 -152 l26 -56 3 -382 3 -383 333 0
c418 0 482 -11 570 -96 67 -65 81 -105 81 -229 0 -103 -2 -113 -29 -163 -35
-62 -86 -106 -159 -135 -49 -21 -72 -22 -424 -25 l-373 -3 0 -372 c0 -418 -4
-447 -69 -533 -26 -35 -56 -59 -104 -83 -61 -31 -76 -35 -150 -35 -145 -1
-248 57 -304 172 l-28 57 -3 397 -3 397 -367 3 c-347 3 -370 4 -419 25 -74 30
-124 73 -158 135 -37 68 -47 197 -21 276 21 63 84 136 145 167 78 39 145 45
492 45 l328 0 3 383 3 382 33 67 c37 76 83 119 157 148 68 27 218 24 286 -7z
m389 -3424 c143 -23 246 -99 289 -215 31 -80 27 -205 -9 -278 -28 -59 -84
-118 -139 -146 -95 -48 -121 -50 -681 -50 -581 0 -596 1 -698 63 -102 61 -146
147 -147 282 0 83 3 96 33 158 52 106 138 163 280 187 72 12 996 12 1072 -1z"/>
</g>
</svg>
