<svg width="500" height="500" viewBox="0 0 500 500" fill="none" xmlns="http://www.w3.org/2000/svg">
<circle cx="250" cy="250" r="215" fill="black"/>
<path d="M273.659 269.145V220.577H319.52C335.089 220.577 344.565 211.777 344.565 197.562C344.565 183.516 335.089 174.547 319.52 174.547H273.659V127.672C273.659 112.103 264.352 102.626 249.799 102.626C235.414 102.626 226.276 112.103 226.276 127.672V174.547H181.262C165.693 174.547 156.217 183.516 156.217 197.731C156.217 211.777 165.693 220.577 181.262 220.577H226.276V269.145C226.276 284.544 235.584 294.021 249.968 294.021C264.352 294.021 273.659 284.544 273.659 269.145Z" fill="white"/>
<path d="M189.392 373.944C189.392 389.013 200.08 398.65 218.128 398.65H282.083C300.131 398.65 310.819 388.838 310.819 373.769C310.819 358.524 300.131 348.887 282.083 348.887H218.128C200.255 348.887 189.392 358.7 189.392 373.944Z" fill="white"/>
</svg>
